HIERARCHY
ROOT ui
{
	 OFFSET 0 0 0
	 CHANNELS 3 XPosition YPosition Z Position
	 EndSite
	 {
	 OFFSET 0 -1 0
	 }
}
ROOT li
{
	 OFFSET 0 0 0
	 CHANNELS 3 XPosition YPosition Z Position
	 EndSite
	 {
	 OFFSET 0 -1 0
	 }
}
ROOT ul
{
	 OFFSET 0 0 0
	 CHANNELS 3 XPosition YPosition Z Position
	 EndSite
	 {
	 OFFSET 0 -1 0
	 }
}
ROOT ll
{
	 OFFSET 0 0 0
	 CHANNELS 3 XPosition YPosition Z Position
	 EndSite
	 {
	 OFFSET 0 -1 0
	 }
}
ROOT tt
{
	 OFFSET 0 0 0
	 CHANNELS 3 XPosition YPosition Z Position
	 EndSite
	 {
	 OFFSET 0 -1 0
	 }
}
ROOT tb
{
	 OFFSET 0 0 0
	 CHANNELS 3 XPosition YPosition Z Position
	 EndSite
	 {
	 OFFSET 0 -1 0
	 }
}
ROOT td
{
	 OFFSET 0 0 0
	 CHANNELS 3 XPosition YPosition Z Position
	 EndSite
	 {
	 OFFSET 0 -1 0
	 }
}
ROOT v
{
	 OFFSET 0 0 0
	 CHANNELS 3 XPosition YPosition Z Position
	 EndSite
	 {
	 OFFSET 0 -1 0
	 }
}
ROOT bn
{
	 OFFSET 0 0 0
	 CHANNELS 3 XPosition YPosition Z Position
	 EndSite
	 {
	 OFFSET 0 -1 0
	 }
}
MOTION
Frames: 13
Frame Time: 0.002
0.017048797607421874	-9.69208002090454E-4	0		0.654898193359375	-2.700079833984375	0		-0.8728140258789062	0.18069305419921874	0		-0.3304267578125	-3.21982470703125	0		1.664716796875	-0.6874605102539062	0		3.147836181640625	-0.987897705078125	0		4.3336669921875	-0.8531607666015625	0		5.90782470703125	0.259576904296875	0		-0.14935296630859374	5.91220849609375	0		
-0.03681734085083008	-5.973690152168274E-4	0		0.6331092529296874	-2.690906494140625	0		-0.8726826171875	0.18071511840820312	0		-0.2902574462890625	-3.218052490234375	0		1.7009620361328126	-0.6706480102539063	0		3.114129638671875	-0.96362939453125	0		4.3137607421875	-0.8599732055664062	0		5.91694873046875	0.2585937194824219	0		-0.1331959228515625	5.92313427734375	0		
0.017254711151123047	-9.197790026664734E-4	0		0.6622042236328125	-2.691064697265625	0		-0.8675857543945312	0.18469645690917968	0		-0.32010614013671873	-3.209844482421875	0		1.7111990966796875	-0.6456773681640625	0		3.1101220703125	-0.9775573120117188	0		4.29470703125	-0.8807975463867187	0		5.91702001953125	0.25866351318359376	0		-0.13317221069335938	5.9231533203125	0		
-0.03673321151733398	-5.648689866065979E-4	0		0.66223876953125	-2.69104638671875	0		-0.8726016235351562	0.1807333221435547	0		-0.23800534057617187	-3.200354248046875	0		1.549238037109375	-0.6416235961914063	0		3.098237060546875	-0.962441650390625	0		4.281724609375	-0.8806666259765625	0		5.91702880859375	0.25872805786132813	0		-0.14928244018554687	5.9122666015625	0		
0.014189285278320312	-0.004881828784942627	0		0.6891917724609375	-2.694205322265625	0		-0.8726543579101562	0.18073152160644532	0		-0.3529058837890625	-3.180623291015625	0		1.5421483154296876	-0.6485596313476563	0		3.088150146484375	-0.9693451538085938	0		4.2576044921875	-0.8924727783203125	0		5.90302587890625	0.2668743896484375	0		-0.14937934875488282	5.91327099609375	0		
-0.03689513397216797	-5.592780113220215E-4	0		0.6351427001953125	-2.687858154296875	0		-0.8727666625976562	0.18072450256347655	0		-0.2820227966308594	-3.186074462890625	0		1.492006103515625	-0.6542303466796875	0		3.06207958984375	-0.9641546020507813	0		4.263443359375	-0.9014759521484375	0		5.9168623046875	0.25883624267578126	0		-0.14953994750976562	5.9132705078125	0		
0.016938854217529296	-9.035879969596863E-4	0		0.6400361328125	-2.68188818359375	0		-0.8579143676757812	0.1836197967529297	0		-0.34507373046875	-3.1716826171875	0		1.480770751953125	-0.666152587890625	0		3.035884765625	-0.9699702758789063	0		4.245271484375	-0.9033345336914063	0		5.903638671875	0.24996046447753906	0		-0.183793701171875	5.90648046875	0		
-0.026202234268188476	0.010362451553344726	0		0.6998538818359376	-2.68026708984375	0		-0.859076416015625	0.19161543273925782	0		-0.30525238037109376	-3.16994189453125	0		1.4556336669921874	-0.6549903564453124	0		3.067767578125	-0.9561571655273438	0		4.241052734375	-0.9052875366210937	0		5.91657666015625	0.2739119873046875	0		-0.1178749237060547	5.93305810546875	0		
0.016479717254638673	-9.12992000579834E-4	0		0.64162744140625	-2.678903076171875	0		-0.8843373413085938	0.18976370239257812	0		-0.3105151062011719	-3.174916748046875	0		1.4373328857421874	-0.6638739624023438	0		3.012488037109375	-0.9617994384765625	0		4.23777734375	-0.9102522583007813	0		5.8982333984375	0.2590517272949219	0		-0.15127268981933595	5.9142607421875	0		
0.016205698013305663	-9.166790246963501E-4	0		0.6933115234375	-2.687231689453125	0		-0.8736689453125	0.18068775939941406	0		-0.3227272644042969	-3.16684619140625	0		1.4340361328125	-0.6678536376953125	0		3.009192138671875	-0.9657735595703125	0		4.23043701171875	-0.9211973876953125	0		5.90695849609375	0.25901226806640626	0		-0.15156773376464844	5.91425634765625	0		
-0.038083564758300784	-5.792549848556519E-4	0		0.6410767211914062	-2.67890576171875	0		-0.8849026489257813	0.1897530517578125	0		-0.3230126953125	-3.16684912109375	0		1.42972802734375	-0.67082861328125	0		3.01485302734375	-0.973808837890625	0		4.23207861328125	-0.9322058715820313	0		5.89766796875	0.25907568359375	0		-0.1518672332763672	5.91425390625	0		
0.015618569374084472	-9.196979999542236E-4	0		0.6717835693359375	-2.67810205078125	0		-0.8652059936523437	0.1886272430419922	0		-0.3542672729492187	-3.159654541015625	0		1.3884630126953126	-0.6655724487304687	0		3.02459912109375	-0.9668748779296875	0		4.24076220703125	-0.9352662353515625	0		5.90636474609375	0.25801385498046875	0		-0.2071583709716797	5.914599609375	0		
0.02337002372741699	0.006031339168548584	0		0.6385838012695313	-2.661895263671875	0		-0.8604790649414062	0.19160012817382813	0		-0.316564453125	-3.15889111328125	0		1.4291361083984375	-0.6708333740234375	0		3.016221923828125	-0.97983251953125	0		4.2394794921875	-0.933271484375	0		5.9111171875	0.264964599609375	0		-0.15243267822265624	5.91425537109375	0		
